#!OML:ASF E:\Mandelcareful walks\Project 1\Capture day 1\Session 1\Subject1.ASF
:FULLY-SPECIFIED
:DEGREES
498
root -3.41019 14.6411 0.198275 -515.474 -47.2576 -548.35
lowerback 31.6452 1.43568 -1.90646
upperback 7.32098 -0.411671 -3.66174
thorax -9.05633 -0.664087 -2.8248
lowerneck -26.4074 13.8312 6.50807
upperneck 12.0421 21.3987 -23.4598
head 11.9588 7.41567 -5.38552
rclavicle -1.05356e-014 5.64051e-014
rhumerus -22.7188 3.3492 -90.6004
rradius 31.879
rwrist -60.2749
rhand 21.9896 -35.8746
rfingers 7.12502
rthumb 46.3838 -58.8076
lclavicle -1.05356e-014 5.64051e-014
lhumerus -6.15994 -83.2116 103.09
lradius 50.5836
lwrist -1.44939
lhand -20.8281 -18.1193
lfingers 7.12502
lthumb 5.54034 11.7882
rfemur -46.7817 -20.861 6.82411
rtibia 70.4272
rfoot -26.6123 -23.323
rtoes -23.4284
lfemur -64.5843 21.9531 -27.1926
ltibia 63.8143
lfoot -13.6858 11.8337
ltoes -2.93561
499
root -3.54026 14.6677 0.225998 -515.561 -47.7437 -547.629
lowerback 32.1074 1.78695 -2.53583
upperback 6.62337 -0.159888 -3.68983
thorax -9.29053 -0.494453 -2.40921
lowerneck -26.4626 13.8327 6.41248
upperneck 11.9553 21.3679 -23.2711
head 11.8854 7.4275 -5.30363
rclavicle 2.06736e-014 -5.77469e-014
rhumerus -22.5961 2.09717 -90.4453
rradius 30.7542
rwrist -59.2083
rhand 21.251 -36.0305
rfingers 7.12502
rthumb 45.6986 -59.2494
lclavicle 2.06736e-014 -5.77469e-014
lhumerus -9.26472 -82.9682 106.531
lradius 50.1679
lwrist -1.68673
lhand -18.0516 -16.4119
lfingers 7.12502
lthumb 8.22054 13.4081
rfemur -46.4435 -20.4569 6.9005
rtibia 69.9078
rfoot -25.9252 -23.7291
rtoes -24.4878
lfemur -64.9918 21.684 -27.0756
ltibia 64.1931
lfoot -14.2194 11.5812
ltoes -2.97835
500
root -3.67221 14.6902 0.254438 -515.699 -48.1524 -546.744
lowerback 32.0426 2.10381 -3.0941
upperback 6.43716 0.0897332 -3.63018
thorax -9.45825 -0.355441 -2.14073
lowerneck -26.6561 13.8294 6.2897
upperneck 11.8625 21.304 -22.9349
head 11.8 7.43213 -5.16766
rclavicle 1.41137e-014 2.28602e-014
rhumerus -22.405 1.53255 -90.4483
rradius 29.9643
rwrist -58.5421
rhand 20.7694 -35.8157
rfingers 7.12502
rthumb 45.2511 -59.2156
lclavicle 1.41137e-014 2.28602e-014
lhumerus -10.2632 -82.7952 107.787
lradius 49.7693
lwrist -1.89509
lhand -16.178 -15.3914
lfingers 7.12502
lthumb 10.0284 14.3497
rfemur -46.206 -19.8617 7.05034
rtibia 69.4009
rfoot -25.4136 -24.0132
rtoes -24.4004
lfemur -65.4519 21.4602 -26.8911
ltibia 64.5208
lfoot -14.7812 11.428
ltoes -3.25641
501
root -3.81583 14.7204 0.284718 -515.746 -48.4723 -546.046
lowerback 31.767 2.38659 -3.43145
upperback 6.37402 0.340629 -3.81831
thorax -9.41222 -0.227905 -2.24943
lowerneck -26.6524 13.789 6.56285
upperneck 11.7482 21.0744 -22.6852
head 11.7047 7.39485 -5.16938
rclavicle -4.05521e-014 7.39479e-014
rhumerus -22.2319 0.942789 -90.6759
rradius 29.3984
rwrist -57.9902
rhand 20.0579 -35.9879
rfingers 7.12502
rthumb 44.589 -59.6476
lclavicle -4.05521e-014 7.39479e-014
lhumerus -11.3063 -83 108.808
lradius 49.4465
lwrist -2.31548
lhand -15.6487 -15.1998
lfingers 7.12502
lthumb 10.5391 14.516
rfemur -45.8913 -19.2033 6.9853
rtibia 68.8244
rfoot -24.8835 -24.3588
rtoes -23.6452
lfemur -65.7228 21.1523 -26.8423
ltibia 64.7459
lfoot -15.3263 11.3441
ltoes -3.31102
502
root -3.97222 14.7555 0.326966 -515.838 -48.8776 -545.43
lowerback 31.6968 2.51961 -3.41423
upperback 6.3436 0.488603 -4.0741
thorax -9.41617 -0.158786 -2.58362
lowerneck -26.8268 13.7743 6.7
upperneck 11.6951 20.9278 -22.3878
head 11.6546 7.37231 -5.1093
rclavicle -1.07344e-013 7.95139e-014
rhumerus -22.6203 0.941435 -90.7787
rradius 29.4253
rwrist -57.785
rhand 20.5191 -35.883
rfingers 7.12502
rthumb 45.0183 -59.3753
lclavicle -1.07344e-013 7.95139e-014
lhumerus -12.1643 -83.4872 109.57
lradius 49.249
lwrist -2.68603
lhand -15.6278 -14.8795
lfingers 7.12502
lthumb 10.5592 14.8353
rfemur -45.4888 -18.7347 6.85424
rtibia 68.2097
rfoot -24.2395 -24.7083
rtoes -23.1006
lfemur -65.7565 20.5507 -26.732
ltibia 64.9018
lfoot -15.8556 11.3748
ltoes -2.68366
503
root -4.12896 14.8026 0.354809 -516.575 -49.1151 -544.383
lowerback 31.9048 2.72274 -3.6128
upperback 6.27147 0.663966 -4.06508
thorax -9.57507 -0.0726603 -2.53681
lowerneck -26.8024 13.8662 6.63003
upperneck 11.6236 21.0128 -22.1358
head 11.5844 7.45099 -4.98397
rclavicle 9.54166e-015 -6.0033e-014
rhumerus -24.4223 2.65905 -90.6576
rradius 31.0154
rwrist -58.8759
rhand 21.0266 -36.1247
rfingers 7.12502
rthumb 45.4902 -59.4285
lclavicle 9.54166e-015 -6.0033e-014
lhumerus -13.386 -83.6241 110.763
lradius 49.1414
lwrist -2.62309
lhand -15.5269 -14.4364
lfingers 7.12502
lthumb 10.6565 15.2734
rfemur -44.816 -18.0841 7.04498
rtibia 67.5727
rfoot -23.553 -25.188
rtoes -22.9493
lfemur -65.2614 20.3372 -26.1978
ltibia 64.951
lfoot -16.4496 11.2666
ltoes -2.08238
504
root -4.29004 14.8481 0.39552 -516.662 -49.3563 -543.802
lowerback 31.544 2.81893 -3.79141
upperback 6.40922 0.730371 -4.20042
thorax -9.27653 -0.0449431 -2.59946
lowerneck -27.1147 14.0378 6.83254
upperneck 11.4955 21.1587 -22.1452
head 11.6364 7.51684 -4.96801
rclavicle 4.41302e-014 -1.86858e-014
rhumerus -24.0582 2.29208 -90.8071
rradius 30.722
rwrist -58.1295
rhand 21.7314 -36.1397
rfingers 7.12502
rthumb 46.1445 -59.1738
lclavicle 4.41302e-014 -1.86858e-014
lhumerus -11.3403 -84.1111 108.581
lradius 49.0624
lwrist -2.31675
lhand -15.7312 -14.5012
lfingers 7.12502
lthumb 10.4594 15.2186
rfemur -44.7036 -17.9491 7.07567
rtibia 67.0675
rfoot -22.5445 -25.704
rtoes -21.8852
lfemur -65.1315 19.8726 -26.1288
ltibia 64.9292
lfoot -16.9262 11.3243
ltoes -2.20269
505
root -4.44588 14.8934 0.441904 -516.374 -49.5452 -543.604
lowerback 30.9568 2.85572 -4.0399
upperback 6.84959 0.716735 -4.3235
thorax -9.24833 -0.0783351 -2.77363
lowerneck -27.1026 14.1727 7.14923
upperneck 11.1919 21.2085 -22.2949
head 11.588 7.56726 -5.04995
rclavicle -3.57812e-015 3.26007e-014
rhumerus -23.9935 2.32157 -90.9728
rradius 30.5926
rwrist -57.5553
rhand 24.9267 -34.7229
rfingers 7.12502
rthumb 49.0938 -56.4088
lclavicle -3.57812e-015 3.26007e-014
lhumerus -10.1655 -84.4881 107.189
lradius 49.0067
lwrist -2.40822
lhand -15.9553 -14.7592
lfingers 7.12502
lthumb 10.2433 14.9714
rfemur -44.892 -18.0171 6.95053
rtibia 66.6446
rfoot -21.3996 -26.3671
rtoes -19.8632
lfemur -65.1407 19.3788 -26.399
ltibia 64.858
lfoot -17.4736 11.3798
ltoes -2.47262
506
root -4.59663 14.9293 0.487241 -516.192 -49.6301 -543.332
lowerback 30.712 2.94907 -4.35616
upperback 6.78724 0.746322 -4.44211
thorax -9.20492 -0.0555691 -2.73237
lowerneck -26.9971 14.2016 7.14329
upperneck 11.0398 21.1868 -22.1452
head 11.4819 7.6004 -4.99975
rclavicle 5.1684e-015 -1.43125e-014
rhumerus -24.2705 2.44879 -90.9837
rradius 30.7224
rwrist -57.3658
rhand 19.8003 -38.8595
rfingers 7.12502
rthumb 44.349 -62.6109
lclavicle 5.1684e-015 -1.43125e-014
lhumerus -10.2099 -84.6741 107.14
lradius 49.0666
lwrist -2.67378
lhand -15.4296 -14.5333
lfingers 7.12502
lthumb 10.7504 15.1716
rfemur -45.1813 -18.134 6.99272
rtibia 66.2426
rfoot -20.3236 -27.0401
rtoes -17.9115
lfemur -65.1504 19.0614 -26.6494
ltibia 64.832
lfoot -18.1091 11.3186
ltoes -1.84174
